<svg style="visibility:hidden; width: 0; height: 0;" xmlns="http://www.w3.org/2000/svg" xmlns:xlink="http://www.w3.org/1999/xlink" >

    <symbol id="cart" viewBox="0 0 24 24">        
        <path id="Vector" d="M17.3896 19.8499H5.60955C5.29187 19.8502 4.98326 19.7439 4.73309 19.5481C4.48291 19.3523 4.30562 19.0783 4.22955 18.7699L1.57955 8.15987C1.55369 8.05658 1.55174 7.94875 1.57383 7.84459C1.59593 7.74044 1.6415 7.64269 1.70707 7.5588C1.77264 7.47491 1.85649 7.40708 1.95223 7.36048C2.04797 7.31387 2.15307 7.28973 2.25955 7.28987H20.7396C20.846 7.28973 20.9511 7.31387 21.0469 7.36048C21.1426 7.40708 21.2265 7.47491 21.292 7.5588C21.3576 7.64269 21.4032 7.74044 21.4253 7.84459C21.4474 7.94875 21.4454 8.05658 21.4196 8.15987L18.7696 18.7699C18.6935 19.0783 18.5162 19.3523 18.266 19.5481C18.0158 19.7439 17.7072 19.8502 17.3896 19.8499V19.8499Z" stroke="#151515" stroke-width="2.5" stroke-linecap="round" stroke-linejoin="round"/>
        <path id="Vector_2" d="M9.29941 2.14993L6.39941 7.28993" stroke="#151515" stroke-width="2.5" stroke-linecap="round" stroke-linejoin="round"/>
        <path id="Vector_3" d="M13.3799 2.14993L16.2899 7.28993" stroke="#151515" stroke-width="2.5" stroke-linecap="round" stroke-linejoin="round"/>       
    </symbol>

    <symbol id="burger" viewBox="0 0 28 28">        
       <path d="M3 7C3 6.44771 3.44772 6 4 6H24C24.5523 6 25 6.44771 25 7C25 7.55229 24.5523 8 24 8H4C3.44772 8 3 7.55229 3 7Z" fill="black"/>
        <path d="M3 14C3 13.4477 3.44772 13 4 13H24C24.5523 13 25 13.4477 25 14C25 14.5523 24.5523 15 24 15H4C3.44772 15 3 14.5523 3 14Z" fill="black"/>
        <path d="M4 20C3.44772 20 3 20.4477 3 21C3 21.5523 3.44772 22 4 22H24C24.5523 22 25 21.5523 25 21C25 20.4477 24.5523 20 24 20H4Z" fill="black"/>
    </symbol>

    <symbol id="search" viewBox="0 0 14 14">        
        <path id="Vector" d="M7.69303 10.4333C10.2704 10.4333 12.3597 8.34392 12.3597 5.7666C12.3597 3.18927 10.2704 1.09993 7.69303 1.09993C5.11571 1.09993 3.02637 3.18927 3.02637 5.7666C3.02637 8.34392 5.11571 10.4333 7.69303 10.4333Z" stroke="#151515" stroke-width="1.5" stroke-linecap="round" stroke-linejoin="bevel"/>
        <path id="Vector_2" d="M4.31319 9.23999L1.18652 12.3667" stroke="#151515" stroke-width="1.5" stroke-linecap="round" stroke-linejoin="bevel"/>
    </symbol>

    <symbol id="arrow-down" viewBox="0 0 32 32">        
      <path d="M14.77,23.795L5.185,14.21c-0.879-0.879-0.879-2.317,0-3.195l0.8-0.801c0.877-0.878,2.316-0.878,3.194,0  l7.315,7.315l7.316-7.315c0.878-0.878,2.317-0.878,3.194,0l0.8,0.801c0.879,0.878,0.879,2.316,0,3.195l-9.587,9.585  c-0.471,0.472-1.104,0.682-1.723,0.647C15.875,24.477,15.243,24.267,14.77,23.795z" />
    </symbol>

    <symbol id="profile" viewBox="0 0 21 24">        
      <path id="Vector" d="M1.5 21.9999L2.29 19.1199C4.9 9.6199 16.1 9.6199 18.71 19.1199L19.5 21.9999" stroke="#151515" stroke-width="2.5" stroke-linecap="round" stroke-linejoin="round"/>
      <path id="Vector_2" d="M10.5 11.98C13.2614 11.98 15.5 9.74139 15.5 6.97997C15.5 4.21854 13.2614 1.97997 10.5 1.97997C7.73858 1.97997 5.5 4.21854 5.5 6.97997C5.5 9.74139 7.73858 11.98 10.5 11.98Z" stroke="#151515" stroke-width="2.5" stroke-linecap="round" stroke-linejoin="bevel"/>
    </symbol>

    <symbol id="star" viewBox="0 0 18 16">        
       <path fill-rule="evenodd" clip-rule="evenodd" d="M8.42397 0.658288C8.48153 0.475753 8.59578 0.316321 8.75014 0.203149C8.90449 0.0899781 9.0909 0.0289612 9.2823 0.0289612C9.4737 0.0289612 9.66011 0.0899781 9.81446 0.203149C9.96882 0.316321 10.0831 0.475753 10.1406 0.658288L11.6906 5.42495H16.6906C16.8889 5.41746 17.0841 5.47507 17.2465 5.58899C17.409 5.7029 17.5296 5.86686 17.5901 6.0558C17.6505 6.24474 17.6475 6.44829 17.5814 6.63533C17.5153 6.82238 17.3897 6.98263 17.224 7.09162L13.1656 10.0333L14.7156 14.8083C14.7769 14.9902 14.7785 15.1869 14.72 15.3697C14.6616 15.5526 14.5463 15.7119 14.3908 15.8245C14.2354 15.9371 14.048 15.9971 13.8561 15.9957C13.6642 15.9943 13.4777 15.9315 13.324 15.8166L9.2573 12.8416L5.19897 15.7916C5.04522 15.9065 4.85877 15.9693 4.66684 15.9707C4.4749 15.9721 4.28754 15.9121 4.13211 15.7995C3.97668 15.6869 3.86133 15.5276 3.80289 15.3447C3.74445 15.1619 3.746 14.9652 3.8073 14.7833L5.3573 10.0083L1.29897 7.06662C1.1332 6.95763 1.00768 6.79738 0.941567 6.61033C0.875458 6.42329 0.872401 6.21975 0.932863 6.0308C0.993325 5.84186 1.11398 5.6779 1.2764 5.56398C1.43881 5.45007 1.63406 5.39246 1.8323 5.39995H6.8323L8.42397 0.658288Z" />
    </symbol>

    <symbol id="star-empty" viewBox="0 0 19 18">        
       <path fill-rule="evenodd" clip-rule="evenodd" d="M8.42397 1.65829C8.48153 1.47575 8.59578 1.31632 8.75014 1.20315C8.90449 1.08998 9.0909 1.02896 9.2823 1.02896C9.4737 1.02896 9.66011 1.08998 9.81446 1.20315C9.96882 1.31632 10.0831 1.47575 10.1406 1.65829L11.6906 6.42495H16.6906C16.8889 6.41746 17.0841 6.47507 17.2465 6.58899C17.409 6.7029 17.5296 6.86686 17.5901 7.0558C17.6505 7.24474 17.6475 7.44829 17.5814 7.63533C17.5153 7.82238 17.3897 7.98263 17.224 8.09162L13.1656 11.0333L14.7156 15.8083C14.7769 15.9902 14.7785 16.1869 14.72 16.3697C14.6616 16.5526 14.5463 16.7119 14.3908 16.8245C14.2354 16.9371 14.048 16.9971 13.8561 16.9957C13.6642 16.9943 13.4777 16.9315 13.324 16.8166L9.2573 13.8416L5.19897 16.7916C5.04522 16.9065 4.85877 16.9693 4.66684 16.9707C4.4749 16.9721 4.28754 16.9121 4.13211 16.7995C3.97668 16.6869 3.86133 16.5276 3.80289 16.3447C3.74445 16.1619 3.746 15.9652 3.8073 15.7833L5.3573 11.0083L1.29897 8.06662C1.1332 7.95763 1.00768 7.79738 0.941567 7.61033C0.875458 7.42329 0.872401 7.21975 0.932863 7.0308C0.993325 6.84186 1.11398 6.6779 1.2764 6.56399C1.43881 6.45007 1.63406 6.39246 1.8323 6.39995H6.8323L8.42397 1.65829Z" stroke="#EBEBEB" stroke-width="1.5" stroke-linecap="round" stroke-linejoin="round" fill="white" />
    </symbol>

    <symbol id="heart" viewBox="0 0 16 16">        
       <path d="M8.65708925,1.48980938 C9.44702079,1.12156992 10.1377013,0.999998758 11.1883068,1.0000128 C13.943947,1.01088121 16,3.242131 16,6.07991742 C16,8.22791335 14.7634633,10.2681748 12.4882503,12.2170546 C11.3099464,13.2263548 9.80903233,14.2228264 8.72690182,14.7565081 L8,15.1149993 L7.27309818,14.7565081 C6.19096767,14.2228264 4.69005361,13.2263548 3.51174965,12.2170546 C1.2365367,10.2681748 5.68434189e-14,8.22791335 5.68434189e-14,6.07991742 C5.62896157e-14,3.21360608 2.03849924,1 4.81818182,1 C5.831947,1 6.55686751,1.13284947 7.36106901,1.51166756 C7.58155904,1.61552911 7.79197381,1.73466526 7.99152798,1.86886795 C8.20174845,1.72496494 8.42388406,1.59852177 8.65708925,1.48980938 Z M11.187169,10.6981118 C13.0611791,9.09289045 14,7.54385424 14,6.07991742 C14,4.31040799 12.7983624,3.00637851 11.1843568,3.00000502 C10.4070928,3.00000037 9.99576289,3.07240122 9.50211527,3.30252309 C9.20545515,3.44081604 8.94389972,3.62634814 8.71590052,3.8619669 L8.00336481,4.59831505 L7.28458534,3.86806044 C7.06157127,3.64148599 6.80321629,3.45967162 6.50879287,3.32098384 C5.99874428,3.0807261 5.55824569,3 4.81818182,3 C3.18155518,3 2,4.28305063 2,6.07991742 C2,7.54385424 2.9388209,9.09289045 4.81283097,10.6981118 C5.80770499,11.5502913 7.07792962,12.404173 8,12.8828952 C8.92207038,12.404173 10.192295,11.5502913 11.187169,10.6981118 Z" fill-rule="evenodd"/>
    </symbol>

    <symbol id="heart-full"  viewBox="0 0 256 256">        
      <path fill="#e5704b" d="M176,32a60,60,0,0,0-48,24A60,60,0,0,0,20,92c0,71.9,99.9,128.6,104.1,131a7.8,7.8,0,0,0,3.9,1,7.6,7.6,0,0,0,3.9-1,314.3,314.3,0,0,0,51.5-37.6C218.3,154,236,122.6,236,92A60,60,0,0,0,176,32Z"/>
    </symbol>

    <symbol id="heart-broken"  viewBox="0 0 29 25">
        <path d="M26.475,2.95c-2.889-2.889-7.401-3.146-10.59-0.79c0.277,0.454,0.563,0.904,0.83,1.363   c0.523,0.868,1.012,1.752,1.493,2.639c0.493,0.882,0.968,1.772,1.427,2.669l0.563,1.098l-1.188,0.668   c-2.242,1.261-4.529,2.435-6.838,3.563c0.639,2.111,1.232,4.239,1.751,6.391c0.169,0.639,0.298,1.291,0.443,1.936   c0.143,0.647,0.289,1.293,0.406,1.949c0.09,0.464,0.171,0.932,0.253,1.398c0.248-0.196,0.492-0.403,0.721-0.633l10.729-10.729   C29.656,11.291,29.656,6.132,26.475,2.95z" fill="#e5704b"/>
        <path d="M12.697,23.043c-0.271-0.604-0.559-1.202-0.807-1.814c-1.046-2.429-2.007-4.887-2.883-7.372l-0.416-1.182   l1.156-0.604c2.285-1.193,4.605-2.315,6.955-3.378c-0.2-0.524-0.407-1.045-0.597-1.575c-0.352-0.946-0.697-1.896-1.007-2.861   c-0.124-0.365-0.231-0.737-0.349-1.104l-0.243,0.243L13.934,2.95c-3.182-3.182-8.468-3.182-11.65,0   c-3.183,3.182-3.119,8.341,0.063,11.522l10.792,10.729c0.282,0.281,0.603,0.529,0.962,0.76c-0.188-0.371-0.378-0.742-0.56-1.115   C13.241,24.251,12.972,23.646,12.697,23.043z" fill="#e5704b"/>
    </symbol>

    <symbol id="error" viewBox="0 0 512 512">   
        <path d="M449.07,399.08,278.64,82.58c-12.08-22.44-44.26-22.44-56.35,0L51.87,399.08A32,32,0,0,0,80,446.25H420.89A32,32,0,0,0,449.07,399.08Zm-198.6-1.83a20,20,0,1,1,20-20A20,20,0,0,1,250.47,397.25ZM272.19,196.1l-5.74,122a16,16,0,0,1-32,0l-5.74-121.95v0a21.73,21.73,0,0,1,21.5-22.69h.21a21.74,21.74,0,0,1,21.73,22.7Z"/>
    </symbol>  
    
    <symbol id="check-mark" viewBox="0 0 24 24">          
        <path d="m10 15.586-3.293-3.293-1.414 1.414L10 18.414l9.707-9.707-1.414-1.414z"/>    
    </symbol>

    <symbol id="filter" viewBox="0 0 24 24">          
      <path d="M21 3H5a1 1 0 0 0-1 1v2.59c0 .523.213 1.037.583 1.407L10 13.414V21a1.001 1.001 0 0 0 1.447.895l4-2c.339-.17.553-.516.553-.895v-5.586l5.417-5.417c.37-.37.583-.884.583-1.407V4a1 1 0 0 0-1-1zm-6.707 9.293A.996.996 0 0 0 14 13v5.382l-2 1V13a.996.996 0 0 0-.293-.707L6 6.59V5h14.001l.002 1.583-5.71 5.71z"/>  
    </symbol>  

    <symbol id="close" viewBox="0 0 512 512">          
      <path d="M289.94,256l95-95A24,24,0,0,0,351,127l-95,95-95-95A24,24,0,0,0,127,161l95,95-95,95A24,24,0,1,0,161,385l95-95,95,95A24,24,0,0,0,385,351Z"/>  
    </symbol>

    <symbol id="order-asc" viewBox="0 0 24 24">          
      <path d="M14 14L2 14" stroke="currentColor" stroke-linecap="round" stroke-linejoin="round"/>
      <path d="M10 10H2" stroke="currentColor" stroke-linecap="round" stroke-linejoin="round"/>
      <path d="M6 6H2" stroke="currentColor" stroke-linecap="round" stroke-linejoin="round"/>
      <path d="M18 18H2" stroke="currentColor" stroke-linecap="round" stroke-linejoin="round"/>
      <path d="M19 14V4M19 4L22 7M19 4L16 7" stroke="currentColor" stroke-linecap="round" stroke-linejoin="round"/>
    </symbol>

    <symbol id="order-desc" viewBox="0 0 24 24">          
      <path d="M14 10L2 10" stroke="currentColor" stroke-linecap="round" stroke-linejoin="round"/>
      <path d="M10 14H2" stroke="currentColor" stroke-linecap="round" stroke-linejoin="round"/>
      <path d="M6 18H2" stroke="currentColor" stroke-linecap="round" stroke-linejoin="round"/>
      <path d="M18 6L2 6" stroke="currentColor" stroke-linecap="round" stroke-linejoin="round"/>
      <path d="M19 10V20M19 20L22 17M19 20L16 17" stroke="currentColor" stroke-linecap="round" stroke-linejoin="round"/>
    </symbol>

    <symbol id="plus" viewBox="0 0 512 512">  
      <path d="M417.4,224H288V94.6c0-16.9-14.3-30.6-32-30.6c-17.7,0-32,13.7-32,30.6V224H94.6C77.7,224,64,238.3,64,256  c0,17.7,13.7,32,30.6,32H224v129.4c0,16.9,14.3,30.6,32,30.6c17.7,0,32-13.7,32-30.6V288h129.4c16.9,0,30.6-14.3,30.6-32  C448,238.3,434.3,224,417.4,224z"/>
    </symbol>

    <symbol id="camera" viewBox="0 0 48 48">  
      <path clip-rule="evenodd" d="M43,41H5c-2.209,0-4-1.791-4-4V15c0-2.209,1.791-4,4-4h1l0,0c0-1.104,0.896-2,2-2  h2c1.104,0,2,0.896,2,2h2c0,0,1.125-0.125,2-1l2-2c0,0,0.781-1,2-1h8c1.312,0,2,1,2,1l2,2c0.875,0.875,2,1,2,1h9  c2.209,0,4,1.791,4,4v22C47,39.209,45.209,41,43,41z M45,15c0-1.104-0.896-2-2-2l-9.221-0.013c-0.305-0.033-1.889-0.269-3.193-1.573  l-2.13-2.13l-0.104-0.151C28.351,9.132,28.196,9,28,9h-8c-0.153,0-0.375,0.178-0.424,0.231l-0.075,0.096l-2.087,2.086  c-1.305,1.305-2.889,1.54-3.193,1.573l-4.151,0.006C10.046,12.994,10.023,13,10,13H8c-0.014,0-0.026-0.004-0.04-0.004L5,13  c-1.104,0-2,0.896-2,2v22c0,1.104,0.896,2,2,2h38c1.104,0,2-0.896,2-2V15z M24,37c-6.075,0-11-4.925-11-11s4.925-11,11-11  s11,4.925,11,11S30.075,37,24,37z M24,17c-4.971,0-9,4.029-9,9s4.029,9,9,9s9-4.029,9-9S28.971,17,24,17z M24,31  c-2.762,0-5-2.238-5-5s2.238-5,5-5s5,2.238,5,5S26.762,31,24,31z M24,23c-1.656,0-3,1.344-3,3c0,1.657,1.344,3,3,3  c1.657,0,3-1.343,3-3C27,24.344,25.657,23,24,23z M10,19H6c-0.553,0-1-0.447-1-1v-2c0-0.552,0.447-1,1-1h4c0.553,0,1,0.448,1,1v2  C11,18.553,10.553,19,10,19z" fill-rule="evenodd"/>
    </symbol>

    <symbol id="google" viewBox="0 0 64 64">  
        <path d="M32.709,0.835c-9.453,0-17.881,4.146-23.591,10.719c-1.74,2.005-3.231,4.232-4.417,6.641l10.501,8.021   c1.217-3.693,3.567-6.862,6.64-9.104c3.043-2.217,6.795-3.527,10.866-3.527c4.398,0,8.37,1.559,11.491,4.109l9.079-9.066   C47.747,3.81,40.654,0.835,32.709,0.835z" fill="#FF7976"/>
        <path d="M4.702,18.194l10.501,8.021c1.217-3.693,3.567-6.862,6.64-9.104c3.043-2.217,6.795-3.527,10.866-3.527   c4.398,0,8.37,1.559,11.491,4.109l9.079-9.066c-5.533-4.816-12.625-7.792-20.57-7.792" fill="#E3443A"/>
        <path d="M14.268,32c0-0.287,0.021-0.57,0.034-0.854c0.082-1.716,0.387-3.37,0.901-4.931L4.702,18.194   c-1.931,3.917-3.051,8.303-3.177,12.952C1.517,31.431,1.5,31.714,1.5,32c0,0.287,0.017,0.571,0.024,0.856   c0.126,4.643,1.246,9.027,3.172,12.94l10.498-8.036c-0.509-1.553-0.812-3.2-0.892-4.905C14.289,32.571,14.268,32.288,14.268,32z" fill="#F4D72C"/>
        <path d="M4.697,45.796l10.498-8.036c-0.509-1.553-0.812-3.2-0.892-4.905c-0.013-0.285-0.034-0.568-0.034-0.856   c0-0.287,0.021-0.57,0.034-0.854c0.082-1.716,0.387-3.37,0.901-4.931L4.702,18.194" fill="#F7B92B"/>
        <path d="M1.5,32" fill="#F7B92B"/>
        <path d="M43.074,47.691c-2.813,1.772-6.356,2.725-10.365,2.725c-2.346,0-4.581-0.446-6.641-1.239   c-1.517-0.584-2.933-1.365-4.226-2.305c-3.072-2.237-5.423-5.396-6.64-9.086l-10.501,8.02c1.184,2.405,2.672,4.629,4.409,6.631   c5.71,6.58,14.144,10.729,23.599,10.729c2.86,0,5.671-0.382,8.355-1.126c4.462-1.238,8.574-3.479,11.979-6.641L43.074,47.691z" fill="#59C96E"/>
        <path d="M4.702,45.806c1.184,2.405,2.672,4.629,4.409,6.631c5.71,6.58,14.144,10.729,23.599,10.729   c2.86,0,5.671-0.382,8.355-1.126c4.462-1.238,8.574-3.479,11.979-6.641l-9.97-7.707c-2.813,1.772-6.356,2.725-10.365,2.725   c-2.346,0-4.581-0.446-6.641-1.239c-1.517-0.584-2.933-1.365-4.226-2.305" fill="#40A557"/>
        <path d="M61.791,26H59.92H33v5.146v1.71V38h16.449c-0.837,4-3.115,7.636-6.375,9.691l9.97,7.707   c2.734-2.538,5.005-5.723,6.639-9.407c1.792-4.036,2.817-8.87,2.817-14.182C62.5,29.969,62.217,28,61.791,26z" fill="#0FAEF4"/>
        <path d="M53.044,55.398c2.734-2.538,5.025-5.759,6.659-9.443c1.792-4.036,2.807-8.852,2.807-14.163   c0-1.841-0.293-3.792-0.719-5.792H60" fill="#4087ED"/>
        <polyline fill="#4087ED" points="33,31 33,32.856 33,38 49,38  "/>
    </symbol>

</svg>    
