<svg style="visibility:hidden; width: 0; height: 0;" xmlns="http://www.w3.org/2000/svg" xmlns:xlink="http://www.w3.org/1999/xlink" >

    <symbol id="logo" viewBox="0 0 178 18">
        <g id="Freshnesecom">
            <path d="M4.37168 10.7609H10.9051V7.23913H4.37168V3.52174H12.357V0H0.5V17.6087H4.37168V10.7609Z" fill="#151515"/>
            <path d="M13.6832 11.0054V17.6087H17.3129V11.0054C17.3129 8.97554 18.9342 7.33696 20.9426 7.33696V4.01087H20.4586C16.4418 4.01087 13.6832 7.1413 13.6832 11.0054Z" fill="#151515"/>
            <path d="M29.0574 4.01087C25.0406 4.01087 21.798 7.1413 21.798 11.0054C21.798 14.8696 25.0406 18 29.0574 18C32.2516 18 34.9618 16.019 35.9297 13.2554H31.9128C31.2595 14.1114 30.2189 14.6739 29.0574 14.6739C27.4846 14.6739 26.1779 13.6712 25.6455 12.2772H36.1959C36.2685 11.8614 36.3169 11.4457 36.3169 11.0054C36.3169 7.1413 33.0743 4.01087 29.0574 4.01087ZM25.6455 9.7337C26.1779 8.33967 27.4846 7.33696 29.0574 7.33696C30.6061 7.33696 31.937 8.33967 32.4694 9.7337H25.6455Z" fill="#151515"/>
            <path d="M44.2453 9.83152C42.8418 9.66033 41.2447 9.04891 41.2447 8.2663C41.2447 7.38587 41.9949 7.09239 42.7934 7.09239C43.5919 7.09239 44.3421 7.38587 44.3421 8.51087H47.9718C47.9718 5.67391 45.6004 4.01087 42.7934 4.01087C39.9864 4.01087 37.615 5.67391 37.615 8.36413C37.615 10.4429 40.059 12.0082 42.5998 12.3261C43.6887 12.4728 44.4873 13.0353 44.4873 13.6467C44.4873 14.5027 43.5919 14.9185 42.7934 14.9185C41.9949 14.9185 41.0995 14.625 41.0995 13.5H37.4698C37.4698 16.337 39.9864 18 42.7934 18C45.6004 18 48.117 16.337 48.117 13.5C48.117 11.2745 46.1569 10.0516 44.2453 9.83152Z" fill="#151515"/>
            <path d="M56.7821 4.01087C55.5722 4.01087 54.4833 4.45109 53.6364 5.18478V0H50.0067V17.6087H53.6364V10.981C53.6364 8.97554 54.7737 7.33696 56.7821 7.33696C58.7906 7.33696 59.9279 8.97554 59.9279 11.0054V17.6087H63.5576V11.0054C63.5576 7.1413 60.799 4.01087 56.7821 4.01087Z" fill="#151515"/>
            <path d="M72.5175 4.01087C68.5006 4.01087 65.742 7.1413 65.742 11.0054V17.6087H69.3717V11.0054C69.3717 8.97554 70.509 7.33696 72.5175 7.33696C74.5259 7.33696 75.6632 8.97554 75.6632 11.0054V17.6087H79.2929V11.0054C79.2929 7.1413 76.5343 4.01087 72.5175 4.01087Z" fill="#151515"/>
            <path d="M88.1346 4.01087C84.1178 4.01087 80.8752 7.1413 80.8752 11.0054C80.8752 14.8696 84.1178 18 88.1346 18C91.3288 18 94.039 16.019 95.0069 13.2554H90.99C90.3367 14.1114 89.2962 14.6739 88.1346 14.6739C86.5618 14.6739 85.2551 13.6712 84.7227 12.2772H95.2731C95.3457 11.8614 95.3941 11.4457 95.3941 11.0054C95.3941 7.1413 92.1515 4.01087 88.1346 4.01087ZM84.7227 9.7337C85.2551 8.33967 86.5618 7.33696 88.1346 7.33696C89.6833 7.33696 91.0142 8.33967 91.5466 9.7337H84.7227Z" fill="#151515"/>
            <path d="M103.322 9.83152C101.919 9.66033 100.322 9.04891 100.322 8.2663C100.322 7.38587 101.072 7.09239 101.871 7.09239C102.669 7.09239 103.419 7.38587 103.419 8.51087H107.049C107.049 5.67391 104.678 4.01087 101.871 4.01087C99.0636 4.01087 96.6922 5.67391 96.6922 8.36413C96.6922 10.4429 99.1362 12.0082 101.677 12.3261C102.766 12.4728 103.564 13.0353 103.564 13.6467C103.564 14.5027 102.669 14.9185 101.871 14.9185C101.072 14.9185 100.177 14.625 100.177 13.5H96.547C96.547 16.337 99.0636 18 101.871 18C104.678 18 107.194 16.337 107.194 13.5C107.194 11.2745 105.234 10.0516 103.322 9.83152Z" fill="#151515"/>
            <path d="M115.617 4.01087C111.6 4.01087 108.358 7.1413 108.358 11.0054C108.358 14.8696 111.6 18 115.617 18C118.811 18 121.522 16.019 122.49 13.2554H118.473C117.819 14.1114 116.779 14.6739 115.617 14.6739C114.044 14.6739 112.738 13.6712 112.205 12.2772H122.756C122.828 11.8614 122.877 11.4457 122.877 11.0054C122.877 7.1413 119.634 4.01087 115.617 4.01087ZM112.205 9.7337C112.738 8.33967 114.044 7.33696 115.617 7.33696C117.166 7.33696 118.497 8.33967 119.029 9.7337H112.205Z" fill="#151515"/>
            <path d="M131.096 7.33696C132.499 7.33696 133.685 8.11957 134.314 9.29348H138.137C137.339 6.26087 134.483 4.01087 131.096 4.01087C127.079 4.01087 123.836 7.1413 123.836 11.0054C123.836 14.8696 127.079 18 131.096 18C134.459 18 137.266 15.7989 138.089 12.8152H134.193C133.588 13.9158 132.451 14.6739 131.096 14.6739C129.087 14.6739 127.466 13.0353 127.466 11.0054C127.466 8.97554 129.087 7.33696 131.096 7.33696Z" fill="#151515"/>
            <path d="M153.429 11.0054C153.429 7.1413 150.211 4.01087 146.218 4.01087C142.226 4.01087 139.007 7.1413 139.007 11.0054C139.007 14.8696 142.226 18 146.218 18C150.211 18 153.429 14.8696 153.429 11.0054ZM149.8 11.0054C149.8 13.0353 148.202 14.6739 146.218 14.6739C144.234 14.6739 142.637 13.0353 142.637 11.0054C142.637 8.97554 144.234 7.33696 146.218 7.33696C148.202 7.33696 149.8 8.97554 149.8 11.0054Z" fill="#151515"/>
            <path d="M170.967 4.01087C169.079 4.01087 167.385 4.86685 166.248 6.23641C165.111 4.86685 163.417 4.01087 161.529 4.01087C157.512 4.01087 154.996 7.1413 154.996 11.0054V17.6087H158.626V11.0054C158.626 8.97554 159.521 7.33696 161.529 7.33696C163.538 7.33696 164.433 8.97554 164.433 11.0054V17.6087H168.063V11.0054C168.063 8.97554 168.958 7.33696 170.967 7.33696C172.975 7.33696 173.87 8.97554 173.87 11.0054V17.6087H177.5V11.0054C177.5 7.1413 174.983 4.01087 170.967 4.01087Z" fill="#151515"/>
        </g>
    </symbol>

    <symbol id="cart" viewBox="0 0 24 24">        
        <path id="Vector" d="M17.3896 19.8499H5.60955C5.29187 19.8502 4.98326 19.7439 4.73309 19.5481C4.48291 19.3523 4.30562 19.0783 4.22955 18.7699L1.57955 8.15987C1.55369 8.05658 1.55174 7.94875 1.57383 7.84459C1.59593 7.74044 1.6415 7.64269 1.70707 7.5588C1.77264 7.47491 1.85649 7.40708 1.95223 7.36048C2.04797 7.31387 2.15307 7.28973 2.25955 7.28987H20.7396C20.846 7.28973 20.9511 7.31387 21.0469 7.36048C21.1426 7.40708 21.2265 7.47491 21.292 7.5588C21.3576 7.64269 21.4032 7.74044 21.4253 7.84459C21.4474 7.94875 21.4454 8.05658 21.4196 8.15987L18.7696 18.7699C18.6935 19.0783 18.5162 19.3523 18.266 19.5481C18.0158 19.7439 17.7072 19.8502 17.3896 19.8499V19.8499Z" stroke="#151515" stroke-width="2.5" stroke-linecap="round" stroke-linejoin="round"/>
        <path id="Vector_2" d="M9.29941 2.14993L6.39941 7.28993" stroke="#151515" stroke-width="2.5" stroke-linecap="round" stroke-linejoin="round"/>
        <path id="Vector_3" d="M13.3799 2.14993L16.2899 7.28993" stroke="#151515" stroke-width="2.5" stroke-linecap="round" stroke-linejoin="round"/>       
    </symbol>

    <symbol id="burger" viewBox="0 0 28 28">        
       <path d="M3 7C3 6.44771 3.44772 6 4 6H24C24.5523 6 25 6.44771 25 7C25 7.55229 24.5523 8 24 8H4C3.44772 8 3 7.55229 3 7Z" fill="black"/>
        <path d="M3 14C3 13.4477 3.44772 13 4 13H24C24.5523 13 25 13.4477 25 14C25 14.5523 24.5523 15 24 15H4C3.44772 15 3 14.5523 3 14Z" fill="black"/>
        <path d="M4 20C3.44772 20 3 20.4477 3 21C3 21.5523 3.44772 22 4 22H24C24.5523 22 25 21.5523 25 21C25 20.4477 24.5523 20 24 20H4Z" fill="black"/>
    </symbol>

    <symbol id="search" viewBox="0 0 14 14">        
        <path id="Vector" d="M7.69303 10.4333C10.2704 10.4333 12.3597 8.34392 12.3597 5.7666C12.3597 3.18927 10.2704 1.09993 7.69303 1.09993C5.11571 1.09993 3.02637 3.18927 3.02637 5.7666C3.02637 8.34392 5.11571 10.4333 7.69303 10.4333Z" stroke="#151515" stroke-width="1.5" stroke-linecap="round" stroke-linejoin="bevel"/>
        <path id="Vector_2" d="M4.31319 9.23999L1.18652 12.3667" stroke="#151515" stroke-width="1.5" stroke-linecap="round" stroke-linejoin="bevel"/>
    </symbol>

    <symbol id="arrow-down" viewBox="0 0 32 32">        
      <path d="M14.77,23.795L5.185,14.21c-0.879-0.879-0.879-2.317,0-3.195l0.8-0.801c0.877-0.878,2.316-0.878,3.194,0  l7.315,7.315l7.316-7.315c0.878-0.878,2.317-0.878,3.194,0l0.8,0.801c0.879,0.878,0.879,2.316,0,3.195l-9.587,9.585  c-0.471,0.472-1.104,0.682-1.723,0.647C15.875,24.477,15.243,24.267,14.77,23.795z" />
    </symbol>

    <symbol id="profile" viewBox="0 0 21 24">        
      <path id="Vector" d="M1.5 21.9999L2.29 19.1199C4.9 9.6199 16.1 9.6199 18.71 19.1199L19.5 21.9999" stroke="#151515" stroke-width="2.5" stroke-linecap="round" stroke-linejoin="round"/>
      <path id="Vector_2" d="M10.5 11.98C13.2614 11.98 15.5 9.74139 15.5 6.97997C15.5 4.21854 13.2614 1.97997 10.5 1.97997C7.73858 1.97997 5.5 4.21854 5.5 6.97997C5.5 9.74139 7.73858 11.98 10.5 11.98Z" stroke="#151515" stroke-width="2.5" stroke-linecap="round" stroke-linejoin="bevel"/>
    </symbol>

    <symbol id="star" viewBox="0 0 18 16">        
       <path fill-rule="evenodd" clip-rule="evenodd" d="M8.42397 0.658288C8.48153 0.475753 8.59578 0.316321 8.75014 0.203149C8.90449 0.0899781 9.0909 0.0289612 9.2823 0.0289612C9.4737 0.0289612 9.66011 0.0899781 9.81446 0.203149C9.96882 0.316321 10.0831 0.475753 10.1406 0.658288L11.6906 5.42495H16.6906C16.8889 5.41746 17.0841 5.47507 17.2465 5.58899C17.409 5.7029 17.5296 5.86686 17.5901 6.0558C17.6505 6.24474 17.6475 6.44829 17.5814 6.63533C17.5153 6.82238 17.3897 6.98263 17.224 7.09162L13.1656 10.0333L14.7156 14.8083C14.7769 14.9902 14.7785 15.1869 14.72 15.3697C14.6616 15.5526 14.5463 15.7119 14.3908 15.8245C14.2354 15.9371 14.048 15.9971 13.8561 15.9957C13.6642 15.9943 13.4777 15.9315 13.324 15.8166L9.2573 12.8416L5.19897 15.7916C5.04522 15.9065 4.85877 15.9693 4.66684 15.9707C4.4749 15.9721 4.28754 15.9121 4.13211 15.7995C3.97668 15.6869 3.86133 15.5276 3.80289 15.3447C3.74445 15.1619 3.746 14.9652 3.8073 14.7833L5.3573 10.0083L1.29897 7.06662C1.1332 6.95763 1.00768 6.79738 0.941567 6.61033C0.875458 6.42329 0.872401 6.21975 0.932863 6.0308C0.993325 5.84186 1.11398 5.6779 1.2764 5.56398C1.43881 5.45007 1.63406 5.39246 1.8323 5.39995H6.8323L8.42397 0.658288Z" fill="#151515"/>
    </symbol>

    <symbol id="star-empty" viewBox="0 0 19 18">        
       <path fill-rule="evenodd" clip-rule="evenodd" d="M8.42397 1.65829C8.48153 1.47575 8.59578 1.31632 8.75014 1.20315C8.90449 1.08998 9.0909 1.02896 9.2823 1.02896C9.4737 1.02896 9.66011 1.08998 9.81446 1.20315C9.96882 1.31632 10.0831 1.47575 10.1406 1.65829L11.6906 6.42495H16.6906C16.8889 6.41746 17.0841 6.47507 17.2465 6.58899C17.409 6.7029 17.5296 6.86686 17.5901 7.0558C17.6505 7.24474 17.6475 7.44829 17.5814 7.63533C17.5153 7.82238 17.3897 7.98263 17.224 8.09162L13.1656 11.0333L14.7156 15.8083C14.7769 15.9902 14.7785 16.1869 14.72 16.3697C14.6616 16.5526 14.5463 16.7119 14.3908 16.8245C14.2354 16.9371 14.048 16.9971 13.8561 16.9957C13.6642 16.9943 13.4777 16.9315 13.324 16.8166L9.2573 13.8416L5.19897 16.7916C5.04522 16.9065 4.85877 16.9693 4.66684 16.9707C4.4749 16.9721 4.28754 16.9121 4.13211 16.7995C3.97668 16.6869 3.86133 16.5276 3.80289 16.3447C3.74445 16.1619 3.746 15.9652 3.8073 15.7833L5.3573 11.0083L1.29897 8.06662C1.1332 7.95763 1.00768 7.79738 0.941567 7.61033C0.875458 7.42329 0.872401 7.21975 0.932863 7.0308C0.993325 6.84186 1.11398 6.6779 1.2764 6.56399C1.43881 6.45007 1.63406 6.39246 1.8323 6.39995H6.8323L8.42397 1.65829Z" stroke="#EBEBEB" stroke-width="1.5" stroke-linecap="round" stroke-linejoin="round"/>
    </symbol>

    <symbol id="heart" viewBox="0 0 16 16">        
       <path d="M8.65708925,1.48980938 C9.44702079,1.12156992 10.1377013,0.999998758 11.1883068,1.0000128 C13.943947,1.01088121 16,3.242131 16,6.07991742 C16,8.22791335 14.7634633,10.2681748 12.4882503,12.2170546 C11.3099464,13.2263548 9.80903233,14.2228264 8.72690182,14.7565081 L8,15.1149993 L7.27309818,14.7565081 C6.19096767,14.2228264 4.69005361,13.2263548 3.51174965,12.2170546 C1.2365367,10.2681748 5.68434189e-14,8.22791335 5.68434189e-14,6.07991742 C5.62896157e-14,3.21360608 2.03849924,1 4.81818182,1 C5.831947,1 6.55686751,1.13284947 7.36106901,1.51166756 C7.58155904,1.61552911 7.79197381,1.73466526 7.99152798,1.86886795 C8.20174845,1.72496494 8.42388406,1.59852177 8.65708925,1.48980938 Z M11.187169,10.6981118 C13.0611791,9.09289045 14,7.54385424 14,6.07991742 C14,4.31040799 12.7983624,3.00637851 11.1843568,3.00000502 C10.4070928,3.00000037 9.99576289,3.07240122 9.50211527,3.30252309 C9.20545515,3.44081604 8.94389972,3.62634814 8.71590052,3.8619669 L8.00336481,4.59831505 L7.28458534,3.86806044 C7.06157127,3.64148599 6.80321629,3.45967162 6.50879287,3.32098384 C5.99874428,3.0807261 5.55824569,3 4.81818182,3 C3.18155518,3 2,4.28305063 2,6.07991742 C2,7.54385424 2.9388209,9.09289045 4.81283097,10.6981118 C5.80770499,11.5502913 7.07792962,12.404173 8,12.8828952 C8.92207038,12.404173 10.192295,11.5502913 11.187169,10.6981118 Z" fill-rule="evenodd"/>
    </symbol>

    <symbol id="error" viewBox="0 0 512 512">   
        <path d="M449.07,399.08,278.64,82.58c-12.08-22.44-44.26-22.44-56.35,0L51.87,399.08A32,32,0,0,0,80,446.25H420.89A32,32,0,0,0,449.07,399.08Zm-198.6-1.83a20,20,0,1,1,20-20A20,20,0,0,1,250.47,397.25ZM272.19,196.1l-5.74,122a16,16,0,0,1-32,0l-5.74-121.95v0a21.73,21.73,0,0,1,21.5-22.69h.21a21.74,21.74,0,0,1,21.73,22.7Z"/>
    </symbol>   

</svg>    
